<?xml version="1.0" encoding="UTF-8"?>
<svg version="1.1" xmlns="http://www.w3.org/2000/svg" width="1024" height="1024">
<path d="M0 0 C1.18634757 0.00092179 2.37269514 0.00184359 3.59499264 0.00279331 C4.25329899 0.00193889 4.91160535 0.00108446 5.58986038 0.00020415 C7.81172657 -0.00145248 10.03351845 0.00407365 12.25537777 0.00952244 C13.84171198 0.0098043 15.42804632 0.0096466 17.01438046 0.00907993 C21.33444272 0.00879191 25.65447747 0.01468945 29.97453332 0.02165389 C34.48423865 0.02788658 38.99394455 0.02849116 43.50365353 0.0296793 C52.04949925 0.03279286 60.59533224 0.04100659 69.14117235 0.05102879 C78.86773184 0.06218914 88.59429192 0.06770018 98.32085621 0.07272422 C118.33476309 0.08318919 138.3486585 0.10078911 158.3625555 0.12304783 C158.3625555 0.45304783 158.3625555 0.78304783 158.3625555 1.12304783 C158.92426449 1.23261814 159.48597347 1.34218845 160.06470394 1.45507908 C180.85284105 5.60427318 199.80661538 12.2036682 217.41786861 24.20514011 C222.00285336 26.79774202 226.35600822 26.69692292 231.52051449 26.66894627 C232.51640087 26.67928394 233.51228725 26.68962162 234.53835201 26.70027256 C237.81195066 26.72963989 241.08492938 26.73119849 244.35864925 26.73242283 C246.63552176 26.74740851 248.91238341 26.76413647 251.18923092 26.78253269 C257.16833662 26.82617441 263.14729567 26.84619845 269.12653255 26.86126804 C275.23328975 26.88085041 281.33988885 26.92281925 287.44653988 26.96289158 C299.41849629 27.03815945 311.39041725 27.08847181 323.3625555 27.12304783 C323.3625555 27.78304783 323.3625555 28.44304783 323.3625555 29.12304783 C324.5175555 29.2442197 325.6725555 29.36539158 326.8625555 29.49023533 C331.16437978 30.03268857 335.21238949 31.010649 339.3625555 32.24804783 C340.09458187 32.46614109 340.82660824 32.68423435 341.58081722 32.9089365 C349.46917941 35.34557146 356.93460773 38.53765985 364.3625555 42.12304783 C364.98340023 42.420499 365.60424496 42.71795017 366.24390316 43.02441502 C408.03950041 63.35622015 440.50751898 102.837395 456.3625555 146.12304783 C462.7535644 164.98159631 466.4970851 184.14530357 466.52750301 204.06872654 C466.53314656 205.24552998 466.5387901 206.42233342 466.54460466 207.63479757 C466.55917889 210.88001252 466.56944421 214.1252071 466.57782316 217.37044287 C466.58793863 220.88016517 466.60364707 224.38986324 466.61861324 227.8995676 C466.64701238 234.77350089 466.67016336 241.64744219 466.69139101 248.52140099 C466.70877724 254.12397987 466.72801558 259.72654958 466.74855328 265.32911777 C466.75148187 266.12877599 466.75441046 266.92843421 466.7574278 267.75232449 C466.76338566 269.37748557 466.76934687 271.00264663 466.7753114 272.62780768 C466.83101246 287.86842615 466.88066379 303.10905982 466.9283164 318.34970528 C466.96913753 331.35718127 467.01540812 344.3646285 467.0656805 357.37207127 C467.12423855 372.52354672 467.17903992 387.67502881 467.22828138 402.82653761 C467.23357838 404.45282493 467.23888098 406.07911223 467.24418926 407.70539951 C467.24810401 408.90513223 467.24810401 408.90513223 467.25209785 410.12910196 C467.2705205 415.69668827 467.29153971 421.26426109 467.3136549 426.83183384 C467.34071398 433.6594459 467.36364644 440.48705828 467.38173987 447.31470019 C467.39102669 450.78207475 467.40188439 454.2494203 467.41784382 457.71677113 C467.47855049 471.71739888 467.40365397 485.70888403 467.02777486 499.70471293 C466.98962476 501.13267978 466.95361705 502.56070584 466.91998132 503.98878616 C466.25305596 531.42360392 457.31629592 555.93477259 437.2375555 575.24804783 C420.52738146 589.95023134 400.78589106 595.35897445 378.948493 595.53711033 C377.48303845 595.55585896 376.01759426 595.57543501 374.55216122 595.59579563 C370.72844263 595.64673319 366.90468919 595.686562 363.08081722 595.72393894 C359.16553048 595.76422177 355.25038389 595.81520226 351.33521175 595.86523533 C343.67775644 595.96153904 336.02023227 596.04608673 328.3625555 596.12304783 C327.35788543 593.10903761 327.24377131 591.13863619 327.25575924 587.99038792 C327.25727489 586.92803928 327.25879055 585.86569065 327.26035213 584.77114964 C327.2670895 583.60546452 327.27382687 582.4397794 327.28076839 581.23877048 C327.28383495 580.01075718 327.28690151 578.78274387 327.290061 577.51751804 C327.29722625 574.84435665 327.30617665 572.17126667 327.31795597 569.49812794 C327.33627443 565.26010208 327.34585644 561.02208429 327.35387325 556.78402805 C327.37799893 544.73147103 327.41367517 532.67896307 327.45850277 520.6264658 C327.48317906 513.97111884 327.50046579 507.31579165 327.51006216 500.66040552 C327.51655335 496.45992101 327.5320048 492.2596003 327.55437958 488.05917192 C327.56902961 484.80655158 327.57030508 481.55391901 327.57373714 478.30127048 C327.58687954 476.58310627 327.58687954 476.58310627 327.60028744 474.83023167 C327.59216896 455.66251929 327.59216896 455.66251929 319.3625555 439.12304783 C318.527243 437.54523533 318.527243 437.54523533 317.6750555 435.93554783 C315.28775256 431.61480182 311.96212128 428.44961283 308.3625555 425.12304783 C307.7025555 425.45304783 307.0425555 425.78304783 306.3625555 426.12304783 C305.7025555 425.13304783 305.0425555 424.14304783 304.3625555 423.12304783 C303.7025555 422.79304783 303.0425555 422.46304783 302.3625555 422.12304783 C302.3625555 421.46304783 302.3625555 420.80304783 302.3625555 420.12304783 C278.00612087 410.25252272 258.40596536 410.12304783 231.3625555 410.12304783 C231.0325555 471.17304783 230.7025555 532.22304783 230.3625555 595.12304783 C227.6748853 596.46688293 225.6145998 596.24716266 222.60352802 596.24609566 C221.36990729 596.24808671 220.13628655 596.25007775 218.86528337 596.25212914 C217.48378918 596.24927573 216.10229517 596.24633013 214.72080135 596.24330235 C213.26302052 596.24373805 211.80523977 596.24461293 210.34745944 596.24589151 C206.32721265 596.24813668 202.3069923 596.24411488 198.28674889 596.23911345 C193.95681856 596.23480946 189.62688983 596.23625534 185.29695797 596.23701572 C177.79027991 596.23754099 170.28361051 596.2343939 162.77693462 596.22877789 C151.9234374 596.22066327 141.06994438 596.2180477 130.21644445 596.21678989 C112.60889575 596.21459932 95.00135169 596.20793907 77.3938055 596.19848728 C60.28605834 596.18931332 43.17831244 596.18223241 26.07056332 596.17797947 C25.01667932 596.17771675 23.96279533 596.17745402 22.87697546 596.17718334 C17.59013959 596.17587833 12.3033037 596.17461462 7.01646781 596.17337143 C-36.86817283 596.16299864 -80.75280842 596.14538016 -124.6374445 596.12304783 C-125.41758266 593.36319845 -125.7576825 590.93251571 -125.73814583 588.0679369 C-125.73520329 587.26517551 -125.73226074 586.46241412 -125.72922903 585.63532662 C-125.72085923 584.75908285 -125.71248943 583.88283907 -125.703866 582.98004246 C-125.6990759 582.04461322 -125.6942858 581.10918397 -125.68935055 580.14540839 C-125.67223087 577.00281765 -125.64801034 573.86031958 -125.62401676 570.71777439 C-125.61064063 568.46731471 -125.5978215 566.21685165 -125.58551884 563.96638584 C-125.55860243 559.11388038 -125.52930084 554.26139687 -125.49865246 549.40891361 C-125.45173406 541.72550482 -125.41990695 534.04208153 -125.39206791 526.3585825 C-125.38732867 525.06142221 -125.38258944 523.76426192 -125.37770659 522.42779374 C-125.3656795 519.10480723 -125.35377483 515.7818203 -125.3419234 512.45883316 C-125.31995246 506.30800157 -125.29743183 500.15717265 -125.27343082 494.00634861 C-125.26943485 492.97978905 -125.26943485 492.97978905 -125.26535814 491.93249092 C-125.22150796 480.86946689 -125.15223122 469.80673164 -125.07435764 458.74390128 C-124.99495285 447.36675299 -124.94706937 435.98982651 -124.92540687 424.61239505 C-124.91215916 418.23214762 -124.88460434 411.85269715 -124.8221693 405.47272587 C-124.76361928 399.461006 -124.74315957 393.45031918 -124.75087643 387.43833065 C-124.74710475 385.24222514 -124.72978174 383.0460905 -124.69725895 380.85022259 C-124.51218328 367.74117964 -125.67071151 358.14661354 -132.61160266 346.8841157 C-137.76189594 338.04258116 -141.1641471 327.98127017 -144.5749445 318.37304783 C-144.88182194 317.51485447 -145.18869938 316.65666111 -145.50487614 315.77246189 C-145.78452213 314.9651865 -146.06416813 314.15791111 -146.35228825 313.32617283 C-146.60099674 312.61106541 -146.84970524 311.89595798 -147.10595036 311.15918064 C-147.6374445 309.12304783 -147.6374445 309.12304783 -147.6374445 305.12304783 C-148.2974445 304.79304783 -148.9574445 304.46304783 -149.6374445 304.12304783 C-149.97077783 301.7897145 -150.30411116 299.45638116 -150.6374445 297.12304783 C-151.2974445 296.79304783 -151.9574445 296.46304783 -152.6374445 296.12304783 C-152.3074445 293.48304783 -151.9774445 290.84304783 -151.6374445 288.12304783 C-152.2974445 287.79304783 -152.9574445 287.46304783 -153.6374445 287.12304783 C-153.9811945 285.20898533 -153.9811945 285.20898533 -154.1374445 282.49804783 C-154.209632 281.43457127 -154.2818195 280.3710947 -154.3561945 279.27539158 C-154.3974445 278.64358982 -154.4386945 278.01178806 -154.4811945 277.3608408 C-154.8143155 272.58992348 -155.23152042 267.82571131 -155.6374445 263.06054783 C-155.72058903 262.03687107 -155.80373356 261.01319431 -155.88939762 259.95849705 C-155.97125309 258.99057224 -156.05310856 258.02264744 -156.1374445 257.02539158 C-156.209632 256.15390476 -156.2818195 255.28241795 -156.3561945 254.38452244 C-156.58238152 251.96035591 -156.58238152 251.96035591 -157.6374445 249.12304783 C-157.7326988 246.72668452 -157.76539319 244.3276996 -157.76683903 241.92944431 C-157.76859135 241.20070103 -157.77034367 240.47195774 -157.77214909 239.72113132 C-157.77655074 237.31211053 -157.77363584 234.90316312 -157.770257 232.49414158 C-157.77093045 230.82170186 -157.77190082 229.14926224 -157.77315617 227.47682285 C-157.77463079 223.97225099 -157.77248584 220.46770462 -157.76781559 216.96313572 C-157.76211404 212.46481362 -157.76540149 207.96655112 -157.77138805 203.4682312 C-157.77499624 200.01536196 -157.77385397 196.56250692 -157.77126026 193.10963726 C-157.77059194 191.45059356 -157.77141614 189.79154858 -157.77373981 188.13250637 C-157.77627102 185.81738826 -157.77241931 183.50236764 -157.76683903 181.18725681 C-157.76604343 179.86837971 -157.76524784 178.5495026 -157.76442814 177.19065952 C-157.6374445 174.12304783 -157.6374445 174.12304783 -156.6374445 172.12304783 C-156.47592261 170.75101716 -156.36373967 169.37298823 -156.2780695 167.99414158 C-152.83244721 119.38070667 -135.43021319 75.46234213 -98.19603825 42.99414158 C-95.38677829 40.64286869 -92.52892186 38.37239191 -89.6374445 36.12304783 C-88.64486637 35.34058689 -87.65228825 34.55812595 -86.629632 33.75195408 C-63.99041724 16.45559401 -35.28106943 4.77540639 -6.9499445 1.51757908 C-3.61754202 1.12067737 -3.15587696 0.14723487 0 0 Z M301.4094305 208.94726658 C294.29721277 216.55255823 292.69722639 223.27706007 292.95239925 233.65039158 C293.86433386 241.37143789 297.74230409 247.45380031 303.42114925 252.65429783 C309.58309274 257.31604984 316.65172141 259.43006419 324.3625555 259.12304783 C333.01067286 257.56459832 339.53062885 253.72233325 345.3625555 247.12304783 C350.10631817 240.07517187 352.18553313 232.87752091 350.89771175 224.38086033 C348.99414461 216.34975222 345.03971279 209.29595242 338.13989925 204.61523533 C325.38560805 197.54074734 312.01877449 199.0381393 301.4094305 208.94726658 Z M190.3625555 369.12304783 C184.69638157 373.49072357 180.82355551 379.52210513 176.70459652 385.27807713 C170.67611055 393.61117835 163.63386658 400.86357927 156.3625555 408.12304783 C155.774743 408.74566502 155.1869305 409.3682822 154.5813055 410.00976658 C131.48319363 434.21028834 98.17223016 449.51643694 65.3625555 454.12304783 C64.20368832 454.30738377 63.04482113 454.4917197 61.85083675 454.68164158 C19.98274876 459.74222802 -26.41826888 449.80203577 -60.30541325 424.03833103 C-63.13654163 421.79472657 -65.89070314 419.4686152 -68.6374445 417.12304783 C-69.92447471 416.04925535 -71.2122578 414.97636472 -72.50072575 413.90429783 C-73.77674877 412.83290788 -75.05152278 411.76002831 -76.3249445 410.68554783 C-76.91388493 410.18933933 -77.50282536 409.69313084 -78.10961246 409.18188572 C-81.01520962 406.68583372 -83.35838863 404.18349428 -85.6374445 401.12304783 C-86.2974445 401.12304783 -86.9574445 401.12304783 -87.6374445 401.12304783 C-87.977757 400.19492283 -87.977757 400.19492283 -88.3249445 399.24804783 C-90.01674284 396.50894574 -91.62988611 396.07280311 -94.6374445 395.12304783 C-94.33858554 408.27284207 -83.29708348 418.33509579 -74.6374445 427.12304783 C-73.73252262 428.07308689 -72.82760075 429.02312595 -71.895257 430.00195408 C-69.91081202 432.35127975 -69.91081202 432.35127975 -67.6374445 432.12304783 C-67.400257 432.69925877 -67.1630695 433.2754697 -66.9186945 433.86914158 C-55.87618776 453.2945269 -20.81947063 464.5610366 -0.6374445 470.12304783 C8.23589236 472.53076429 8.23589236 472.53076429 17.3625555 473.12304783 C17.3625555 473.45304783 17.3625555 473.78304783 17.3625555 474.12304783 C68.64392201 480.03400669 117.31070066 467.21790069 158.38208675 435.51367283 C189.61848977 411.28452746 189.61848977 411.28452746 207.823493 377.69336033 C208.11922031 373.39827326 207.75179624 371.64203547 205.1125555 368.12304783 C199.30334795 363.89816961 196.03087484 365.46225826 190.3625555 369.12304783 Z " fill="#125E9A" transform="translate(349.6374444961548,183.87695217132568)"/>
<path d="M0 0 C0.33 0 0.66 0 1 0 C1.15088961 34.73519933 1.29592149 69.4704178 1.4332476 104.20567336 C1.44951591 108.31932603 1.46583203 112.4329785 1.48217773 116.54663086 C1.48543066 117.36548278 1.48868358 118.18433469 1.49203508 119.0280003 C1.5446148 132.23517165 1.60105562 145.44232375 1.6589582 158.64947271 C1.71841574 172.23119732 1.77364317 185.81293453 1.82505554 199.394692 C1.85683371 207.75529064 1.89179539 216.1158629 1.93101191 224.47643001 C1.95769447 230.23271716 1.98021757 235.98901187 1.99967117 241.74532794 C2.01096157 245.05166092 2.0245147 248.3579396 2.04183006 251.66424942 C2.10746953 264.39466695 2.05253388 277.1008111 1.56114197 289.82337952 C1.52200166 290.84893241 1.48286136 291.87448531 1.44253498 292.93111557 C1.2204448 298.01907106 0.83394903 302.97497951 0 308 C-0.33 308 -0.66 308 -1 308 C-1.02286486 268.90703761 -1.04049745 229.81407609 -1.05106533 190.72110835 C-1.05231611 186.11086584 -1.05361042 181.50062335 -1.05493164 176.89038086 C-1.05519395 175.97252443 -1.05545626 175.05466801 -1.05572652 174.10899775 C-1.06008354 159.22696064 -1.06797126 144.34492737 -1.0771528 129.46289254 C-1.08648846 114.20433051 -1.09205542 98.9457705 -1.09408849 83.68720573 C-1.0954639 74.26400446 -1.09981546 64.84081405 -1.10791647 55.41761612 C-1.11318285 48.96486802 -1.11480454 42.51212557 -1.11350138 36.05937547 C-1.11285783 32.3307285 -1.11387741 28.60210058 -1.11920547 24.87345695 C-1.1249264 20.84067921 -1.12300118 16.80794258 -1.12025452 12.77516174 C-1.12462378 10.98774932 -1.12462378 10.98774932 -1.12908131 9.16422755 C-1.12609474 7.55713731 -1.12609474 7.55713731 -1.12304783 5.9175806 C-1.12342755 4.98536719 -1.12380727 4.05315378 -1.1241985 3.09269148 C-1 1 -1 1 0 0 Z " fill="#073C6C" transform="translate(815,392)"/>
<path d="M0 0 C2.61503608 2.61503608 3.31920197 5.15989351 4.625 8.625 C6.85752531 14.39600037 9.3425815 19.97299242 12.125 25.5 C12.44936035 26.14533691 12.7737207 26.79067383 13.10791016 27.45556641 C14.62130193 30.42476276 16.11854824 33.16923233 18.03895569 35.91069031 C20.86331917 40.88795187 20.53740636 45.86259339 20.4699707 51.4543457 C20.4721611 52.59068954 20.4743515 53.72703339 20.47660828 54.89781189 C20.47891943 58.65743117 20.45261837 62.41626593 20.42578125 66.17578125 C20.42084844 68.81960787 20.41740544 71.4633969 20.41581726 74.10722351 C20.40936886 79.66639278 20.38816715 85.22534229 20.35668945 90.78442383 C20.31305995 98.49715743 20.29709945 106.20975921 20.28638864 113.92259812 C20.2441439 141.29080838 20.11692855 168.65104972 19 196 C17 194 17 194 16.77625084 191.424757 C16.78848497 190.32648142 16.80071911 189.22820583 16.81332397 188.09664917 C16.82213593 186.83807098 16.83094788 185.5794928 16.84002686 184.28277588 C16.85986687 182.87975906 16.87982953 181.47674397 16.89990234 180.07373047 C16.91355864 178.60188654 16.92621989 177.13003309 16.93795776 175.65817261 C16.96466788 172.48131157 16.99696139 169.30457171 17.03306198 166.1278038 C17.08874275 161.09098032 17.12275705 156.05415836 17.15200806 151.01712036 C17.16229736 149.29096017 17.1726106 147.56480012 17.18294716 145.83864021 C17.18811828 144.97384741 17.1932894 144.10905461 17.19861722 143.21805596 C17.27059034 131.49125951 17.36076623 119.76484488 17.49365234 108.03857422 C17.5830844 100.13145286 17.64330497 92.2246684 17.67136729 84.31708443 C17.68741628 80.13757954 17.71799397 75.95935885 17.78470993 71.78033066 C18.50819945 47.65628348 18.50819945 47.65628348 9 26 C8.21195493 24.39036617 7.45284558 22.76520895 6.7578125 21.11328125 C6.47679687 20.46552734 6.19578125 19.81777344 5.90625 19.15039062 C5.6484375 18.54388672 5.390625 17.93738281 5.125 17.3125 C4.84398437 16.66345703 4.56296875 16.01441406 4.2734375 15.34570312 C3.5065263 13.5676991 2.75268719 11.78407206 2 10 C1.608125 9.0821875 1.21625 8.164375 0.8125 7.21875 C-0.11316589 4.69097007 -0.1526387 2.67117718 0 0 Z " fill="#125287" transform="translate(207,503)"/>
<path d="M0 0 C-2.41723924 2.41723924 -4.33647829 2.93601683 -7.5625 4.0625 C-47.76713936 19.18371392 -80.40488046 51.69873177 -99 90 C-99.703125 88.42578125 -99.703125 88.42578125 -100 86 C-99.02407871 83.5752573 -98.01403824 81.45521271 -96.75 79.1875 C-96.20907715 78.20052124 -96.20907715 78.20052124 -95.65722656 77.19360352 C-84.34077024 57.11763702 -68.11778557 39.0942254 -50 25 C-49.00742187 24.21753906 -48.01484375 23.43507812 -46.9921875 22.62890625 C-35.51307771 13.86435546 -15.02896903 -1.40896585 0 0 Z " fill="#114979" transform="translate(310,195)"/>
<path d="M0 0 C33.66 0 67.32 0 102 0 C102 0.66 102 1.32 102 2 C103.85625 2.1546875 103.85625 2.1546875 105.75 2.3125 C109.2792866 2.73801682 111.37160966 3.48112592 114 6 C106.01238354 5.18770002 106.01238354 5.18770002 102.38960266 4.51602173 C91.82679642 2.57809822 81.31213939 2.64843391 70.60546875 2.5859375 C68.56137845 2.56719272 66.51729562 2.54761694 64.47322083 2.5272522 C59.13541093 2.47627432 53.79757604 2.43646642 48.45965576 2.39910889 C42.99582919 2.35885201 37.53210349 2.30785942 32.06835938 2.2578125 C21.37897746 2.16146073 10.68953813 2.07692762 0 2 C0 1.34 0 0.68 0 0 Z " fill="#0B3F71" transform="translate(571,211)"/>
<path d="M0 0 C0.66 0 1.32 0 2 0 C3.01938721 1.69389192 3.9628469 3.43353396 4.875 5.1875 C7.78800038 10.34173967 11.02594288 14.61261737 15.0625 18.9375 C15.55669434 19.46819092 16.05088867 19.99888184 16.56005859 20.5456543 C18.96275107 23.06088599 21.41223928 25.38316311 24.12109375 27.56640625 C27 30 27 30 29.00390625 32.51953125 C31.35766716 35.4444592 33.92644714 37.45104333 36.9375 39.6875 C37.95714844 40.45449219 38.97679687 41.22148438 40.02734375 42.01171875 C42.68078 43.78648754 45.06092149 44.83133088 48 46 C48.45608643 46.46422363 48.91217285 46.92844727 49.38208008 47.40673828 C51.19323062 49.19028565 52.95528902 50.21519765 55.1953125 51.41015625 C55.99324219 51.84263672 56.79117188 52.27511719 57.61328125 52.72070312 C59.29546184 53.61934859 60.97775454 54.5177842 62.66015625 55.41601562 C63.45550781 55.84720703 64.25085938 56.27839844 65.0703125 56.72265625 C65.80008301 57.11203369 66.52985352 57.50141113 67.28173828 57.90258789 C69 59 69 59 70 61 C63.84758181 59.30585586 58.72537325 56.85491263 53.328125 53.4609375 C51.47147494 52.29585844 49.55607843 51.22456064 47.625 50.1875 C37.31684896 44.29712798 28.54221598 36.14432528 20 28 C19.33097656 27.37222656 18.66195313 26.74445312 17.97265625 26.09765625 C11.12912287 19.50241433 4.14392204 11.62653001 0 3 C0 2.01 0 1.02 0 0 Z " fill="#114D80" transform="translate(255,586)"/>
<path d="M0 0 C6.44542881 0.44541581 11.22544153 2.78365124 16.875 5.8125 C18.25558594 6.54738647 18.25558594 6.54738647 19.6640625 7.29711914 C33.98600494 15.08986804 46.40139413 24.58365794 58 36 C59.26650391 37.24523437 59.26650391 37.24523437 60.55859375 38.515625 C63.05248417 41.0534079 65.44220832 43.65918842 67.8125 46.3125 C68.60269531 47.19550781 69.39289063 48.07851563 70.20703125 48.98828125 C70.79871094 49.65214844 71.39039063 50.31601562 72 51 C71.67 51.99 71.34 52.98 71 54 C69.47816445 52.33424841 67.9575915 50.66734329 66.4375 49 C65.97786865 48.49742676 65.5182373 47.99485352 65.04467773 47.47705078 C62.47960786 44.66305387 59.99379274 41.80441125 57.5625 38.875 C45.94951464 25.58758419 29.476295 15.69374731 13.83203125 7.9296875 C13.10612793 7.56891113 12.38022461 7.20813477 11.63232422 6.83642578 C10.19256147 6.12375123 8.75024477 5.4162083 7.30517578 4.71435547 C4.51861666 3.34663129 2.21130524 2.21130524 0 0 Z " fill="#104879" transform="translate(701,222)"/>
<path d="M0 0 C2.25514034 3.60467808 2.24237315 6.58975816 2.22705078 10.78808594 C2.22734283 11.46166641 2.22763489 12.13524689 2.22793579 12.82923889 C2.22654641 15.04775026 2.21100401 17.26592256 2.1953125 19.484375 C2.19158097 21.02565324 2.18873466 22.56693387 2.18673706 24.10821533 C2.17911161 28.15902286 2.15947253 32.2096863 2.1373291 36.26043701 C2.1168472 40.3962611 2.10773033 44.53210853 2.09765625 48.66796875 C2.07622555 56.77871185 2.04210281 64.88933799 2 73 C1.67 73 1.34 73 1 73 C0.77213542 71.01432292 0.54427083 69.02864583 0.31640625 67.04296875 C0.02829265 64.80603607 0.02829265 64.80603607 -1 62 C-1.09654924 59.66824474 -1.130754 57.33375237 -1.1328125 55 C-1.13413177 54.29962112 -1.13545105 53.59924225 -1.1368103 52.87763977 C-1.1387326 50.58504879 -1.13237422 48.29257867 -1.125 46 C-1.12411377 45.22232269 -1.12322754 44.44464539 -1.12231445 43.6434021 C-1.10283507 29.07825626 -0.69449942 14.5493934 0 0 Z " fill="#0F4D81" transform="translate(225,704)"/>
<path d="M0 0 C3.22319468 1.07439823 3.6465986 1.49348473 5.53125 4.11328125 C6.0065918 4.77360352 6.48193359 5.43392578 6.97167969 6.11425781 C7.72819824 7.2023877 7.72819824 7.2023877 8.5 8.3125 C9.02754883 9.07014648 9.55509766 9.82779297 10.09863281 10.60839844 C22.2835773 28.45297684 38.49848178 54.52277335 37 77 C34.08628159 74.08628159 33.79311792 70.52332714 32.875 66.625 C27.00884466 43.35547377 16.20226878 22.59285145 1.28125 3.83984375 C0 2 0 2 0 0 Z " fill="#0F4474" transform="translate(774,277)"/>
<path d="M0 0 C0.68359375 1.6484375 0.68359375 1.6484375 1 4 C-7.89353415 24.56064506 -25.68551101 38.65781531 -45.875 47 C-50.84776513 48.81989813 -54.74161463 49.51552798 -60 49 C-56.5149992 47.07544732 -52.92746514 46.02458249 -49.125 44.875 C-36.60225992 40.84342326 -26.27601608 34.40575057 -17 25 C-16.30390625 24.31421875 -15.6078125 23.6284375 -14.890625 22.921875 C-8.48904411 16.22254616 -4.12163326 8.24326652 0 0 Z " fill="#114674" transform="translate(806,728)"/>
<path d="M0 0 C0.99 0.33 1.98 0.66 3 1 C1.71451591 2.33929505 0.42141845 3.67128643 -0.875 5 C-1.59429688 5.7425 -2.31359375 6.485 -3.0546875 7.25 C-5 9 -5 9 -7 9 C-7 9.66 -7 10.32 -7 11 C-8.92356782 12.64920313 -10.84647616 14.17692704 -12.875 15.6875 C-13.47070801 16.13665771 -14.06641602 16.58581543 -14.68017578 17.04858398 C-16.44717244 18.37442411 -18.2218935 19.68911058 -20 21 C-20.845625 21.62648438 -21.69125 22.25296875 -22.5625 22.8984375 C-47.717723 41 -47.717723 41 -55 41 C-55 40.34 -55 39.68 -55 39 C-53.43765625 38.21689453 -53.43765625 38.21689453 -51.84375 37.41796875 C-32.4275694 27.51576232 -15.95335821 14.78077095 0 0 Z " fill="#124C7E" transform="translate(528,601)"/>
<path d="M0 0 C2.78630924 2.18827213 4.74037098 4.35759539 5.9765625 7.6953125 C3.87472367 6.75310888 2.22797669 5.9568702 0.62109375 4.28515625 C-4.80262834 -0.95820453 -12.06334006 -3.02937707 -19.42578125 -3.37109375 C-27.38008274 -3.1677507 -34.06653954 -0.20799316 -39.75390625 5.40234375 C-42.58507601 8.61100282 -44.9689699 11.92878857 -47.0234375 15.6953125 C-48.0234375 12.6953125 -48.0234375 12.6953125 -47.01171875 10.2421875 C-42.13049949 2.09544394 -35.85514204 -3.56833899 -26.44140625 -5.9609375 C-16.52000685 -7.37141108 -8.50907178 -5.48654435 0 0 Z " fill="#0E477A" transform="translate(691.0234375,388.3046875)"/>
<path d="M0 0 C0.66 0.33 1.32 0.66 2 1 C-11.65853498 15.61145603 -28.25328801 26.47513059 -46.1875 35.125 C-46.98945801 35.5156665 -47.79141602 35.90633301 -48.61767578 36.30883789 C-52.52222539 38.13181749 -55.58481071 39.54858063 -60 39 C-58.0297567 37.0297567 -56.87061004 36.3863039 -54.359375 35.3359375 C-53.62541504 35.02277588 -52.89145508 34.70961426 -52.13525391 34.38696289 C-51.34812012 34.05301514 -50.56098633 33.71906738 -49.75 33.375 C-31.35864444 25.35877183 -14.25036844 14.25036844 0 0 Z " fill="#0F4676" transform="translate(505,591)"/>
<path d="M0 0 C2.61503608 2.61503608 3.31920197 5.15989351 4.625 8.625 C7.3917898 15.78955705 10.66865937 22.60975604 14.16796875 29.44140625 C14.47549072 30.05113281 14.7830127 30.66085937 15.09985352 31.2890625 C15.90801415 32.82515952 16.8120334 34.30990908 17.7265625 35.78515625 C19.587782 40.48387909 19.31961957 44.87478238 19.1875 49.875 C19.16719727 51.33679688 19.16719727 51.33679688 19.14648438 52.828125 C19.11131962 55.21932863 19.0621067 57.60936975 19 60 C16.92536713 56.2457105 17.00589004 54.03965634 17.375 49.75 C17.50834852 41.16235521 14.19754422 35.4348414 10.10791016 28.08056641 C8.24423106 24.58072655 6.6863342 20.9549123 5.125 17.3125 C4.83939209 16.65330566 4.55378418 15.99411133 4.25952148 15.31494141 C3.49757742 13.54704841 2.7483136 11.77370548 2 10 C1.608125 9.0821875 1.21625 8.164375 0.8125 7.21875 C-0.11316589 4.69097007 -0.1526387 2.67117718 0 0 Z " fill="#0E4271" transform="translate(207,503)"/>
<path d="M0 0 C4.14480094 1.5135509 7.84122408 3.57449677 11.625 5.8125 C24.50927152 13.23996243 37.81281803 17.66893889 52 22 C52 22.33 52 22.66 52 23 C46.55487717 23.28286352 42.18131229 22.38163953 37.125 20.5 C36.39466553 20.23445312 35.66433105 19.96890625 34.91186523 19.6953125 C23.57548359 15.4667488 10.5767858 10.51511664 1 3 C0.67 2.01 0.34 1.02 0 0 Z " fill="#0E4779" transform="translate(296,611)"/>
<path d="M0 0 C3.82586705 3.3041579 4.87525376 6.64954942 5.3359375 11.63671875 C5.58923184 22.76387072 4.46085377 30.69507874 -3.5 39.0625 C-6.2495926 41.7414695 -8.15320149 43.43172295 -12 44 C-10.76210371 40.28631113 -9.14775123 39.22645819 -6 37 C-5.34 37 -4.68 37 -4 37 C-3.56880859 36.13761719 -3.56880859 36.13761719 -3.12890625 35.2578125 C-2.41587324 33.83174648 -1.69546742 32.40932172 -0.96484375 30.9921875 C3.39624979 22.00468674 3.74003556 14.84898974 0.69140625 5.34765625 C0 3 0 3 0 0 Z " fill="#114B7D" transform="translate(697,397)"/>
<path d="M0 0 C5.87554513 0.6448769 11.24581299 2.16723531 16.875 3.9375 C29.19120049 7.97545681 29.19120049 7.97545681 42 9 C42 9.99 42 10.98 42 12 C35.298667 12.33821282 29.67850656 11.14557251 23.25 9.3125 C22.28368652 9.04356934 21.31737305 8.77463867 20.32177734 8.49755859 C13.29960527 6.4940875 6.6012809 4.14744617 0 1 C0 0.67 0 0.34 0 0 Z " fill="#114C7E" transform="translate(326,647)"/>
<path d="M0 0 C9.81722398 4.32986734 14.14477445 15.16248618 18.0390625 24.48828125 C19.887986 29.4907425 20.2901646 33.68031574 20 39 C19.67 39 19.34 39 19 39 C18.66226563 37.83082031 18.32453125 36.66164063 17.9765625 35.45703125 C17.52617263 33.90881606 17.0756445 32.36064109 16.625 30.8125 C16.29242187 29.65911133 16.29242187 29.65911133 15.953125 28.48242188 C14.08594916 21.14495143 14.08594916 21.14495143 10 15 C9.4225 13.9275 8.845 12.855 8.25 11.75 C6.7143022 8.96363922 5.0445488 6.89005038 2.75 4.6875 C1.8425 3.800625 0.935 2.91375 0 2 C0 1.34 0 0.68 0 0 Z " fill="#0F4576" transform="translate(659,608)"/>
<path d="M0 0 C0 0.33 0 0.66 0 1 C-8.71052476 2.22099972 -17.31878532 3.19534955 -26.125 3.1875 C-26.81005615 3.18814453 -27.4951123 3.18878906 -28.20092773 3.18945312 C-32.56159737 3.14247811 -36.70772788 2.69679742 -41 2 C-41 1.67 -41 1.34 -41 1 C-27.33207359 -0.14069132 -13.70719411 -0.10657507 0 0 Z " fill="#0D4374" transform="translate(419,659)"/>
<path d="M0 0 C5.65712507 0.50627968 9.80953392 2.05621159 14.8125 4.6875 C15.50666016 5.04473145 16.20082031 5.40196289 16.91601562 5.77001953 C29.29636407 12.20446711 29.29636407 12.20446711 33 15 C33 15.66 33 16.32 33 17 C29.65895601 15.75221045 26.7949354 14.31983037 23.8125 12.375 C16.29445892 7.7520341 8.09242372 4.4732189 0 1 C0 0.67 0 0.34 0 0 Z " fill="#0F4779" transform="translate(536,194)"/>
<path d="M0 0 C0 0.33 0 0.66 0 1 C-0.6290625 1.13535156 -1.258125 1.27070312 -1.90625 1.41015625 C-13.34169564 4.28623972 -19.09459079 11.87237134 -26 21 C-26.66 20.67 -27.32 20.34 -28 20 C-11.03926097 -2.75981524 -11.03926097 -2.75981524 0 0 Z " fill="#0F487B" transform="translate(553,548)"/>
<path d="M0 0 C0.66 0 1.32 0 2 0 C3.06449583 1.73282986 4.04962135 3.51454808 5 5.3125 C8.83374141 12.12894087 13.53832319 17.41744101 19 23 C18.67 23.99 18.34 24.98 18 26 C0 7.34900542 0 7.34900542 0 0 Z " fill="#0D4576" transform="translate(255,586)"/>
<path d="M0 0 C0.33 0 0.66 0 1 0 C1.22220512 6.82586363 0.44646056 12.90194007 -1 19.5625 C-1.19078125 20.47580078 -1.3815625 21.38910156 -1.578125 22.33007812 C-2.04411929 24.55520087 -2.51816975 26.77826276 -3 29 C-3.33 29 -3.66 29 -4 29 C-4.44363175 19.25653231 -3.43028116 10.41891352 -1 1 C-0.67 0.67 -0.34 0.34 0 0 Z " fill="#114776" transform="translate(200,312)"/>
<path d="M0 0 C0.33 0 0.66 0 1 0 C1.01417969 1.03898437 1.02835938 2.07796875 1.04296875 3.1484375 C1.27266125 11.05764231 1.74020247 17.18247966 6.0390625 24.08203125 C6.35617187 24.71496094 6.67328125 25.34789062 7 26 C6.67 26.99 6.34 27.98 6 29 C5.20309351 27.77422398 4.41273516 26.54418995 3.625 25.3125 C3.18414063 24.62800781 2.74328125 23.94351562 2.2890625 23.23828125 C-0.62008629 18.18694109 -1.29351059 14.04152598 -1.1875 8.25 C-1.18685547 7.56550781 -1.18621094 6.88101562 -1.18554688 6.17578125 C-1.14067963 1.14067963 -1.14067963 1.14067963 0 0 Z " fill="#0E4473" transform="translate(642,405)"/>
<path d="M0 0 C0.33 0 0.66 0 1 0 C2.1151642 9.23993193 -1.73855518 17.45996806 -7.35400391 24.76025391 C-8.5454135 26.19372767 -9.76972573 27.59973965 -11 29 C-11.33 28.01 -11.66 27.02 -12 26 C-10.70703125 23.80078125 -10.70703125 23.80078125 -8.8125 21.3125 C-3.68775319 14.26469451 -0.62577872 8.76090207 0 0 Z " fill="#0D4374" transform="translate(558,555)"/>
<path d="M0 0 C3.19424186 0.64318445 5.56114807 1.81929505 8.375 3.4375 C14.63020198 6.67746989 21.06214426 7.33020701 28 8 C28 8.33 28 8.66 28 9 C18.68672529 9.55879648 10.78843385 9.91920973 3 4 C1.234375 1.828125 1.234375 1.828125 0 0 Z " fill="#0E4577" transform="translate(650,435)"/>
<path d="M0 0 C0 0.33 0 0.66 0 1 C1.06541016 1.18175781 1.06541016 1.18175781 2.15234375 1.3671875 C3.07144531 1.53476563 3.99054688 1.70234375 4.9375 1.875 C6.31228516 2.11863281 6.31228516 2.11863281 7.71484375 2.3671875 C8.46894531 2.57601562 9.22304688 2.78484375 10 3 C10.33 3.66 10.66 4.32 11 5 C8.64558284 4.85758352 6.29152516 4.71115192 3.9375 4.5625 C2.62652344 4.48128906 1.31554687 4.40007812 -0.03515625 4.31640625 C-3.73867418 4.02085457 -7.35064698 3.70197746 -11 3 C-11.33 2.34 -11.66 1.68 -12 1 C-7.93631321 0.22596442 -4.13574827 -0.0984702 0 0 Z " fill="#124B7C" transform="translate(508,184)"/>
<path d="M0 0 C1 2 1 2 0.109375 4.6875 C-0.33921875 5.780625 -0.7878125 6.87375 -1.25 8 C-3.48622147 13.59989722 -5.38749765 19.1923696 -7 25 C-7.33 25 -7.66 25 -8 25 C-7.59117903 17.09612795 -5.80140514 5.80140514 0 0 Z " fill="#104777" transform="translate(209,286)"/>
<path d="M0 0 C3.60088097 1.57696661 6.31420626 3.78918349 9.3125 6.3125 C13.43374226 9.73766113 17.58851052 12.96097391 22 16 C21.01 16.33 20.02 16.66 19 17 C16.56433207 15.3931773 14.37578394 13.77415841 12.125 11.9375 C11.51269531 11.45861328 10.90039062 10.97972656 10.26953125 10.48632812 C6.31101065 7.32035929 3.12089694 3.99308677 0 0 Z " fill="#0E4778" transform="translate(271,592)"/>
<path d="M0 0 C0.33 0 0.66 0 1 0 C1.55711226 8.07812777 -0.0082185 15.46551347 -3 23 C-3.99 23.66 -4.98 24.32 -6 25 C-5.73445312 23.94941406 -5.46890625 22.89882813 -5.1953125 21.81640625 C-3.36816609 14.56308403 -1.56747641 7.31488991 0 0 Z " fill="#0D416E" transform="translate(813,702)"/>
<path d="M0 0 C0.33 0 0.66 0 1 0 C1.50734284 2.3736397 2.00602386 4.74857425 2.5 7.125 C2.64308594 7.79015625 2.78617188 8.4553125 2.93359375 9.140625 C3.7612283 13.16056422 4.15330658 16.89904899 4 21 C2.68 20.34 1.36 19.68 0 19 C0.33 16.36 0.66 13.72 1 11 C0.34 10.67 -0.32 10.34 -1 10 C-0.67 6.7 -0.34 3.4 0 0 Z " fill="#124572" transform="translate(197,461)"/>
<path d="M0 0 C0.99 0.33 1.98 0.66 3 1 C-1.29 5.62 -5.58 10.24 -10 15 C-10.33 14.01 -10.66 13.02 -11 12 C-10.54109375 11.55269531 -10.0821875 11.10539063 -9.609375 10.64453125 C-6.16447701 7.25029352 -2.92744915 3.86423288 0 0 Z " fill="#0F4878" transform="translate(543,585)"/>
<path d="M0 0 C4.53099675 0.54371961 7.83672603 1.71302455 11.8125 3.9375 C12.76769531 4.46214844 13.72289062 4.98679687 14.70703125 5.52734375 C17 7 17 7 18 9 C13.78224268 7.64474464 9.70578678 6.09799886 5.625 4.375 C4.56539062 3.92898438 3.50578125 3.48296875 2.4140625 3.0234375 C1.61742187 2.68570313 0.82078125 2.34796875 0 2 C0 1.34 0 0.68 0 0 Z " fill="#0F4778" transform="translate(637,596)"/>
<path d="M0 0 C1.17949219 0.11085937 2.35898437 0.22171875 3.57421875 0.3359375 C4.47785156 0.43132812 5.38148438 0.52671875 6.3125 0.625 C6.3125 1.285 6.3125 1.945 6.3125 2.625 C-0.2875 2.955 -6.8875 3.285 -13.6875 3.625 C-12.3675 2.965 -11.0475 2.305 -9.6875 1.625 C-5.94784036 -0.86810643 -4.39679359 -0.4353261 0 0 Z " fill="#0E4677" transform="translate(353.6875,184.375)"/>
<path d="M0 0 C2.76315985 2.38636532 3.87271889 4.54041314 5 8 C5.1953125 11.11328125 5.1953125 11.11328125 5.125 14.3125 C5.10695313 15.38113281 5.08890625 16.44976562 5.0703125 17.55078125 C5.03550781 18.76314453 5.03550781 18.76314453 5 20 C4.67 20 4.34 20 4 20 C3.51908942 17.79204578 3.04034821 15.583619 2.5625 13.375 C2.16224609 11.53035156 2.16224609 11.53035156 1.75390625 9.6484375 C1.09088549 6.43982928 0.51270616 3.23552432 0 0 Z " fill="#0E4170" transform="translate(697,397)"/>
<path d="M0 0 C0 0.33 0 0.66 0 1 C-1.155 1.2475 -2.31 1.495 -3.5 1.75 C-8.06141704 2.87406348 -11.86773557 4.78628691 -16 7 C-16 6.01 -16 5.02 -16 4 C-10.30185919 0.26584423 -6.74036783 -1.86435706 0 0 Z " fill="#134F81" transform="translate(669,384)"/>
<path d="M0 0 C1.58409994 0.11487748 3.16728963 0.24234508 4.75 0.375 C6.07257812 0.47941406 6.07257812 0.47941406 7.421875 0.5859375 C9.99066382 0.99850055 11.75841015 1.71160957 14 3 C13.67 3.66 13.34 4.32 13 5 C8.71 3.68 4.42 2.36 0 1 C0 0.67 0 0.34 0 0 Z " fill="#114777" transform="translate(520,189)"/>
<path d="M0 0 C-0.33 0.66 -0.66 1.32 -1 2 C-5.68395246 3.14242743 -10.21355271 3.08252495 -15 3 C-10.44719878 0.34419929 -5.08408244 -1.69469415 0 0 Z " fill="#0F4676" transform="translate(433,634)"/>
<path d="M0 0 C4.75 0.75 4.75 0.75 7 3 C7.1953125 5.6015625 7.1953125 5.6015625 7.125 8.625 C7.10695313 9.62789062 7.08890625 10.63078125 7.0703125 11.6640625 C7.03550781 12.82035156 7.03550781 12.82035156 7 14 C6.67 14 6.34 14 6 14 C5.85304688 12.98679687 5.85304688 12.98679687 5.703125 11.953125 C4.62920914 5.04032595 4.62920914 5.04032595 0 0 Z " fill="#195A8F" transform="translate(551,549)"/>
<path d="M0 0 C1.41750563 0.11509661 2.83401169 0.24253658 4.25 0.375 C5.03890625 0.44460937 5.8278125 0.51421875 6.640625 0.5859375 C9.085877 1.01507113 10.84836903 1.78600638 13 3 C13 3.66 13 4.32 13 5 C11.39402675 4.54803755 9.79027492 4.08817673 8.1875 3.625 C6.84751953 3.24214844 6.84751953 3.24214844 5.48046875 2.8515625 C3 2 3 2 0 0 Z " fill="#0F4576" transform="translate(686,217)"/>
<path d="M0 0 C0.33 0 0.66 0 1 0 C1 1.65 1 3.3 1 5 C1.66 5 2.32 5 3 5 C2.67 9.29 2.34 13.58 2 18 C1.67 18 1.34 18 1 18 C0.67 12.06 0.34 6.12 0 0 Z " fill="#18588D" transform="translate(677,642)"/>
<path d="M0 0 C2.32472205 2.85306797 3.7508258 5.54074837 5 9 C4.34 9.66 3.68 10.32 3 11 C2.30034557 9.73581754 1.61565237 8.46334598 0.9375 7.1875 C0.55464844 6.47980469 0.17179688 5.77210938 -0.22265625 5.04296875 C-1 3 -1 3 0 0 Z " fill="#134A7C" transform="translate(221,534)"/>
<path d="M0 0 C-2.39763185 2.39763185 -3.33273498 2.34280586 -6.625 2.625 C-7.44226563 2.69976563 -8.25953125 2.77453125 -9.1015625 2.8515625 C-9.72804688 2.90054688 -10.35453125 2.94953125 -11 3 C-11 2.34 -11 1.68 -11 1 C-7.32589215 -0.17571451 -3.83070817 -0.07366746 0 0 Z " fill="#0F4676" transform="translate(442,654)"/>
<path d="M0 0 C-1.28813342 0.83878455 -2.58063256 1.67086783 -3.875 2.5 C-4.59429687 2.9640625 -5.31359375 3.428125 -6.0546875 3.90625 C-8 5 -8 5 -10 5 C-9 2 -9 2 -6.125 0.25 C-3 -1 -3 -1 0 0 Z " fill="#134D80" transform="translate(479,615)"/>
<path d="M0 0 C0.33 0.99 0.66 1.98 1 3 C-0.40445835 5.2636564 -2.1967913 7.0208685 -4 9 C-4.99 8.67 -5.98 8.34 -7 8 C-4.69 5.36 -2.38 2.72 0 0 Z " fill="#0E4372" transform="translate(515,580)"/>
<path d="M0 0 C4.58826282 1.93726652 6.80528594 3.48864333 9 8 C5.4213696 6.34832443 2.25179812 4.21713508 -1 2 C-0.67 1.34 -0.34 0.68 0 0 Z " fill="#0C4375" transform="translate(255,576)"/>
<path d="M0 0 C4.28383193 1.97293752 7.84837867 4.69675735 10 9 C6.78956118 7.61811547 4.95063635 6.07578097 2.75 3.375 C2.22921875 2.74335938 1.7084375 2.11171875 1.171875 1.4609375 C0.78515625 0.97882813 0.3984375 0.49671875 0 0 Z " fill="#0B3F70" transform="translate(687,387)"/>
<path d="M0 0 C-1.29299694 2.88437779 -2.65941363 4.87219421 -5 7 C-5.99 6.67 -6.98 6.34 -8 6 C-7.0479279 4.99403703 -6.08812654 3.99538437 -5.125 3 C-4.59132812 2.443125 -4.05765625 1.88625 -3.5078125 1.3125 C-2 0 -2 0 0 0 Z " fill="#144F81" transform="translate(251,229)"/>
<path d="M0 0 C4.7517398 0.43197635 6.92000054 1.32769295 10 5 C8.51800098 4.55090939 7.03944764 4.09043436 5.5625 3.625 C4.73878906 3.36976563 3.91507812 3.11453125 3.06640625 2.8515625 C1 2 1 2 0 0 Z " fill="#0E4779" transform="translate(315,642)"/>
<path d="M0 0 C2.31 0.66 4.62 1.32 7 2 C7 2.99 7 3.98 7 5 C6.01 5.33 5.02 5.66 4 6 C3.34 5.01 2.68 4.02 2 3 C1.34 2.67 0.68 2.34 0 2 C0 1.34 0 0.68 0 0 Z " fill="#18598E" transform="translate(652,604)"/>
<path d="M0 0 C0.99 0 1.98 0 3 0 C5.25 2.3125 5.25 2.3125 7 5 C6.67 5.99 6.34 6.98 6 8 C4.02 5.36 2.04 2.72 0 0 Z " fill="#0D4375" transform="translate(766,268)"/>
<path d="M0 0 C1 4 1 4 1 4 Z " fill="#20659C" transform="translate(676,700)"/>
<path d="M0 0 C0.66 0 1.32 0 2 0 C1.67 0.99 1.34 1.98 1 3 C0.67 2.01 0.34 1.02 0 0 Z " fill="#1F68A0" transform="translate(674,644)"/>
<path d="M0 0 C0.66 0.66 1.32 1.32 2 2 C1.01 1.67 0.02 1.34 -1 1 C-0.67 0.67 -0.34 0.34 0 0 Z " fill="#1E669F" transform="translate(294,613)"/>
<path d="M0 0 C0.99 0.495 0.99 0.495 2 1 C1.67 1.66 1.34 2.32 1 3 C0.67 2.01 0.34 1.02 0 0 Z " fill="#216298" transform="translate(194,467)"/>
<path d="M0 0 C1 4 1 4 1 4 Z " fill="#216599" transform="translate(192,444)"/>
<path d="M0 0 C1 4 1 4 1 4 Z " fill="#206397" transform="translate(192,437)"/>
<path d="M0 0 C0.33 0.99 0.66 1.98 1 3 C0.34 2.67 -0.32 2.34 -1 2 C-0.67 1.34 -0.34 0.68 0 0 Z " fill="#21659B" transform="translate(193,336)"/>
<path d="" fill="#1F6499" transform="translate(0,0)"/>
<path d="M0 0 C0.33 0.66 0.66 1.32 1 2 C0.34 1.67 -0.32 1.34 -1 1 C-0.67 0.67 -0.34 0.34 0 0 Z " fill="#21669A" transform="translate(209,516)"/>
<path d="M0 0 C0.66 0 1.32 0 2 0 C1.67 0.66 1.34 1.32 1 2 C0.67 1.34 0.34 0.68 0 0 Z " fill="#206398" transform="translate(202,499)"/>
<path d="M0 0 C0.66 0 1.32 0 2 0 C1.67 0.66 1.34 1.32 1 2 C0.67 1.34 0.34 0.68 0 0 Z " fill="#226597" transform="translate(193,464)"/>
<path d="M0 0 C3 1 3 1 3 1 Z " fill="#1E679F" transform="translate(665,440)"/>
<path d="" fill="#1F669F" transform="translate(0,0)"/>
<path d="" fill="#1D669E" transform="translate(0,0)"/>
<path d="" fill="#21659B" transform="translate(0,0)"/>
<path d="M0 0 C0.33 0.66 0.66 1.32 1 2 C0.34 1.67 -0.32 1.34 -1 1 C-0.67 0.67 -0.34 0.34 0 0 Z " fill="#226499" transform="translate(622,208)"/>
<path d="" fill="#21649A" transform="translate(0,0)"/>
<path d="M0 0 C2 1 2 1 2 1 Z " fill="#226598" transform="translate(310,780)"/>
<path d="" fill="#1F659A" transform="translate(0,0)"/>
<path d="" fill="#226295" transform="translate(0,0)"/>
<path d="M0 0 C2 1 2 1 2 1 Z " fill="#1E679F" transform="translate(383,657)"/>
<path d="M0 0 C2 1 2 1 2 1 Z " fill="#1F679F" transform="translate(417,656)"/>
<path d="M0 0 C2 1 2 1 2 1 Z " fill="#2068A2" transform="translate(417,639)"/>
<path d="M0 0 C2 1 2 1 2 1 Z " fill="#1F67A1" transform="translate(349,639)"/>
<path d="M0 0 C2 1 2 1 2 1 Z " fill="#206AA0" transform="translate(353,638)"/>
<path d="M0 0 C2 1 2 1 2 1 Z " fill="#226AA1" transform="translate(448,631)"/>
<path d="M0 0 C2 1 2 1 2 1 Z " fill="#206A9F" transform="translate(489,629)"/>
<path d="M0 0 C2 1 2 1 2 1 Z " fill="#1F67A1" transform="translate(304,621)"/>
<path d="" fill="#21689E" transform="translate(0,0)"/>
<path d="" fill="#1D66A0" transform="translate(0,0)"/>
<path d="" fill="#1E659E" transform="translate(0,0)"/>
<path d="" fill="#23669B" transform="translate(0,0)"/>
<path d="" fill="#206598" transform="translate(0,0)"/>
<path d="M0 0 C2 1 2 1 2 1 Z " fill="#2066A0" transform="translate(696,421)"/>
<path d="" fill="#1E669F" transform="translate(0,0)"/>
<path d="" fill="#23669A" transform="translate(0,0)"/>
<path d="" fill="#1F6194" transform="translate(0,0)"/>
<path d="" fill="#236497" transform="translate(0,0)"/>
<path d="M0 0 C2 1 2 1 2 1 Z " fill="#1E6396" transform="translate(692,216)"/>
<path d="M0 0 C2 1 2 1 2 1 Z " fill="#216497" transform="translate(662,209)"/>
<path d="M0 0 C2 1 2 1 2 1 Z " fill="#1F6395" transform="translate(629,209)"/>
<path d="M0 0 C2 1 2 1 2 1 Z " fill="#226799" transform="translate(288,200)"/>
<path d="M0 0 C2 1 2 1 2 1 Z " fill="#206399" transform="translate(344,184)"/>
<path d="M0 0 C2 1 2 1 2 1 Z " fill="#20679B" transform="translate(339,184)"/>
<path d="M0 0 C2 1 2 1 2 1 Z " fill="#1E6498" transform="translate(336,184)"/>
<path d="" fill="#222A2E" transform="translate(0,0)"/>
<path d="" fill="#216191" transform="translate(0,0)"/>
<path d="" fill="#226194" transform="translate(0,0)"/>
<path d="" fill="#245D8A" transform="translate(0,0)"/>
<path d="" fill="#206398" transform="translate(0,0)"/>
<path d="" fill="#235883" transform="translate(0,0)"/>
<path d="" fill="#246194" transform="translate(0,0)"/>
<path d="" fill="#265D86" transform="translate(0,0)"/>
<path d="" fill="#236394" transform="translate(0,0)"/>
<path d="" fill="#236599" transform="translate(0,0)"/>
<path d="" fill="#23649A" transform="translate(0,0)"/>
<path d="" fill="#216599" transform="translate(0,0)"/>
<path d="" fill="#206298" transform="translate(0,0)"/>
<path d="" fill="#246597" transform="translate(0,0)"/>
<path d="" fill="#21659A" transform="translate(0,0)"/>
<path d="" fill="#216699" transform="translate(0,0)"/>
<path d="" fill="#206699" transform="translate(0,0)"/>
<path d="" fill="#21679A" transform="translate(0,0)"/>
<path d="" fill="#236398" transform="translate(0,0)"/>
<path d="" fill="#256291" transform="translate(0,0)"/>
<path d="" fill="#256595" transform="translate(0,0)"/>
<path d="" fill="#246496" transform="translate(0,0)"/>
<path d="" fill="#236291" transform="translate(0,0)"/>
<path d="" fill="#256193" transform="translate(0,0)"/>
<path d="" fill="#265F8A" transform="translate(0,0)"/>
<path d="" fill="#216495" transform="translate(0,0)"/>
<path d="" fill="#236295" transform="translate(0,0)"/>
<path d="" fill="#216296" transform="translate(0,0)"/>
<path d="" fill="#216496" transform="translate(0,0)"/>
<path d="" fill="#226597" transform="translate(0,0)"/>
<path d="" fill="#216498" transform="translate(0,0)"/>
<path d="" fill="#216697" transform="translate(0,0)"/>
<path d="" fill="#1F6096" transform="translate(0,0)"/>
<path d="" fill="#23649A" transform="translate(0,0)"/>
<path d="" fill="#216297" transform="translate(0,0)"/>
<path d="" fill="#1E6297" transform="translate(0,0)"/>
<path d="" fill="#206497" transform="translate(0,0)"/>
<path d="" fill="#226297" transform="translate(0,0)"/>
<path d="" fill="#226398" transform="translate(0,0)"/>
<path d="" fill="#206297" transform="translate(0,0)"/>
<path d="" fill="#216598" transform="translate(0,0)"/>
<path d="" fill="#216698" transform="translate(0,0)"/>
<path d="" fill="#206398" transform="translate(0,0)"/>
<path d="" fill="#21649A" transform="translate(0,0)"/>
<path d="" fill="#226295" transform="translate(0,0)"/>
<path d="" fill="#216197" transform="translate(0,0)"/>
<path d="" fill="#246197" transform="translate(0,0)"/>
<path d="" fill="#235C88" transform="translate(0,0)"/>
<path d="" fill="#246396" transform="translate(0,0)"/>
<path d="" fill="#206193" transform="translate(0,0)"/>
<path d="" fill="#216397" transform="translate(0,0)"/>
<path d="" fill="#21659C" transform="translate(0,0)"/>
<path d="" fill="#226393" transform="translate(0,0)"/>
<path d="" fill="#21669D" transform="translate(0,0)"/>
<path d="" fill="#216599" transform="translate(0,0)"/>
<path d="" fill="#226092" transform="translate(0,0)"/>
<path d="" fill="#235F8D" transform="translate(0,0)"/>
<path d="" fill="#235F90" transform="translate(0,0)"/>
<path d="" fill="#1E639A" transform="translate(0,0)"/>
<path d="" fill="#21659E" transform="translate(0,0)"/>
<path d="" fill="#21679F" transform="translate(0,0)"/>
<path d="" fill="#1F649A" transform="translate(0,0)"/>
<path d="" fill="#1F639A" transform="translate(0,0)"/>
<path d="" fill="#1F659C" transform="translate(0,0)"/>
<path d="" fill="#2267A0" transform="translate(0,0)"/>
<path d="" fill="#23669D" transform="translate(0,0)"/>
<path d="" fill="#226196" transform="translate(0,0)"/>
<path d="" fill="#21679E" transform="translate(0,0)"/>
<path d="" fill="#2066A0" transform="translate(0,0)"/>
<path d="" fill="#21669D" transform="translate(0,0)"/>
<path d="" fill="#2268A2" transform="translate(0,0)"/>
<path d="" fill="#22689D" transform="translate(0,0)"/>
<path d="" fill="#1F66A0" transform="translate(0,0)"/>
<path d="" fill="#2268A2" transform="translate(0,0)"/>
<path d="" fill="#1F669D" transform="translate(0,0)"/>
<path d="" fill="#2168A0" transform="translate(0,0)"/>
<path d="" fill="#1D659E" transform="translate(0,0)"/>
<path d="" fill="#1D669F" transform="translate(0,0)"/>
<path d="" fill="#1F649D" transform="translate(0,0)"/>
<path d="" fill="#1F679C" transform="translate(0,0)"/>
<path d="" fill="#1E68A0" transform="translate(0,0)"/>
<path d="" fill="#20669E" transform="translate(0,0)"/>
<path d="" fill="#206DA1" transform="translate(0,0)"/>
<path d="" fill="#2169A1" transform="translate(0,0)"/>
<path d="" fill="#2067A3" transform="translate(0,0)"/>
<path d="" fill="#1D679C" transform="translate(0,0)"/>
<path d="" fill="#2068A1" transform="translate(0,0)"/>
<path d="" fill="#1E679E" transform="translate(0,0)"/>
<path d="" fill="#216CA2" transform="translate(0,0)"/>
<path d="" fill="#1D66A0" transform="translate(0,0)"/>
<path d="" fill="#1B68A1" transform="translate(0,0)"/>
<path d="" fill="#21669D" transform="translate(0,0)"/>
<path d="" fill="#1D66A0" transform="translate(0,0)"/>
<path d="" fill="#21669E" transform="translate(0,0)"/>
<path d="" fill="#20659C" transform="translate(0,0)"/>
<path d="" fill="#1F66A2" transform="translate(0,0)"/>
<path d="" fill="#206BA2" transform="translate(0,0)"/>
<path d="" fill="#20649B" transform="translate(0,0)"/>
<path d="" fill="#206BA2" transform="translate(0,0)"/>
<path d="" fill="#20679A" transform="translate(0,0)"/>
<path d="" fill="#21679D" transform="translate(0,0)"/>
<path d="" fill="#20689E" transform="translate(0,0)"/>
<path d="" fill="#206AA2" transform="translate(0,0)"/>
<path d="" fill="#206BA4" transform="translate(0,0)"/>
<path d="" fill="#1C659F" transform="translate(0,0)"/>
<path d="" fill="#21689E" transform="translate(0,0)"/>
<path d="" fill="#20669F" transform="translate(0,0)"/>
<path d="" fill="#1F679D" transform="translate(0,0)"/>
<path d="" fill="#2066A0" transform="translate(0,0)"/>
<path d="" fill="#1E679F" transform="translate(0,0)"/>
<path d="" fill="#2168A1" transform="translate(0,0)"/>
<path d="" fill="#216BA1" transform="translate(0,0)"/>
<path d="" fill="#216AA2" transform="translate(0,0)"/>
<path d="" fill="#20689C" transform="translate(0,0)"/>
<path d="" fill="#20689B" transform="translate(0,0)"/>
<path d="" fill="#206DA1" transform="translate(0,0)"/>
<path d="" fill="#21689D" transform="translate(0,0)"/>
<path d="" fill="#1D669F" transform="translate(0,0)"/>
<path d="" fill="#2068A1" transform="translate(0,0)"/>
<path d="" fill="#21679D" transform="translate(0,0)"/>
<path d="" fill="#2168A1" transform="translate(0,0)"/>
<path d="" fill="#22689F" transform="translate(0,0)"/>
<path d="" fill="#1E68A2" transform="translate(0,0)"/>
<path d="" fill="#1E659C" transform="translate(0,0)"/>
<path d="" fill="#21699F" transform="translate(0,0)"/>
<path d="" fill="#216BA1" transform="translate(0,0)"/>
<path d="" fill="#1F669D" transform="translate(0,0)"/>
<path d="" fill="#1E659C" transform="translate(0,0)"/>
<path d="" fill="#1F64A0" transform="translate(0,0)"/>
<path d="" fill="#1F689C" transform="translate(0,0)"/>
<path d="" fill="#1F679D" transform="translate(0,0)"/>
<path d="" fill="#1E649A" transform="translate(0,0)"/>
<path d="" fill="#2066A0" transform="translate(0,0)"/>
<path d="" fill="#22689E" transform="translate(0,0)"/>
<path d="" fill="#226AA2" transform="translate(0,0)"/>
<path d="" fill="#1F689D" transform="translate(0,0)"/>
<path d="" fill="#1E669F" transform="translate(0,0)"/>
<path d="" fill="#1F689D" transform="translate(0,0)"/>
<path d="" fill="#1F65A0" transform="translate(0,0)"/>
<path d="" fill="#2169A0" transform="translate(0,0)"/>
<path d="" fill="#2067A1" transform="translate(0,0)"/>
<path d="" fill="#20629C" transform="translate(0,0)"/>
<path d="" fill="#1E649B" transform="translate(0,0)"/>
<path d="" fill="#1D669E" transform="translate(0,0)"/>
<path d="" fill="#1F659B" transform="translate(0,0)"/>
<path d="" fill="#1F669C" transform="translate(0,0)"/>
<path d="" fill="#21699D" transform="translate(0,0)"/>
<path d="" fill="#20679B" transform="translate(0,0)"/>
<path d="" fill="#1C659C" transform="translate(0,0)"/>
<path d="" fill="#1D68A0" transform="translate(0,0)"/>
<path d="" fill="#1F69A0" transform="translate(0,0)"/>
<path d="" fill="#1F67A1" transform="translate(0,0)"/>
<path d="" fill="#206BA2" transform="translate(0,0)"/>
<path d="" fill="#1C679E" transform="translate(0,0)"/>
<path d="" fill="#21699F" transform="translate(0,0)"/>
<path d="" fill="#1F699F" transform="translate(0,0)"/>
<path d="" fill="#1F649F" transform="translate(0,0)"/>
<path d="" fill="#206B9F" transform="translate(0,0)"/>
<path d="" fill="#21659E" transform="translate(0,0)"/>
<path d="" fill="#20659E" transform="translate(0,0)"/>
<path d="" fill="#1E689E" transform="translate(0,0)"/>
<path d="" fill="#1F669F" transform="translate(0,0)"/>
<path d="" fill="#216397" transform="translate(0,0)"/>
<path d="" fill="#226497" transform="translate(0,0)"/>
<path d="" fill="#226498" transform="translate(0,0)"/>
<path d="" fill="#20679B" transform="translate(0,0)"/>
<path d="" fill="#22659A" transform="translate(0,0)"/>
<path d="" fill="#206498" transform="translate(0,0)"/>
<path d="" fill="#1F6297" transform="translate(0,0)"/>
<path d="" fill="#256399" transform="translate(0,0)"/>
<path d="" fill="#206396" transform="translate(0,0)"/>
<path d="" fill="#266696" transform="translate(0,0)"/>
<path d="" fill="#206399" transform="translate(0,0)"/>
<path d="" fill="#22659A" transform="translate(0,0)"/>
<path d="" fill="#226397" transform="translate(0,0)"/>
<path d="" fill="#236698" transform="translate(0,0)"/>
<path d="" fill="#246496" transform="translate(0,0)"/>
<path d="" fill="#216497" transform="translate(0,0)"/>
<path d="" fill="#236396" transform="translate(0,0)"/>
<path d="" fill="#1F6094" transform="translate(0,0)"/>
<path d="" fill="#216499" transform="translate(0,0)"/>
<path d="" fill="#206094" transform="translate(0,0)"/>
<path d="" fill="#1F659A" transform="translate(0,0)"/>
<path d="" fill="#2166A1" transform="translate(0,0)"/>
<path d="" fill="#1D679C" transform="translate(0,0)"/>
<path d="" fill="#1D669E" transform="translate(0,0)"/>
<path d="" fill="#1D6299" transform="translate(0,0)"/>
<path d="" fill="#20679B" transform="translate(0,0)"/>
<path d="" fill="#1D66A0" transform="translate(0,0)"/>
<path d="" fill="#1E639B" transform="translate(0,0)"/>
<path d="" fill="#1D64A1" transform="translate(0,0)"/>
<path d="" fill="#1F67A0" transform="translate(0,0)"/>
<path d="" fill="#276697" transform="translate(0,0)"/>
<path d="" fill="#1C649C" transform="translate(0,0)"/>
<path d="" fill="#1F69A3" transform="translate(0,0)"/>
<path d="" fill="#1F68A2" transform="translate(0,0)"/>
<path d="" fill="#286697" transform="translate(0,0)"/>
<path d="" fill="#226699" transform="translate(0,0)"/>
<path d="" fill="#246599" transform="translate(0,0)"/>
<path d="" fill="#216499" transform="translate(0,0)"/>
<path d="" fill="#236297" transform="translate(0,0)"/>
<path d="" fill="#226699" transform="translate(0,0)"/>
<path d="" fill="#216195" transform="translate(0,0)"/>
<path d="" fill="#246699" transform="translate(0,0)"/>
<path d="" fill="#216295" transform="translate(0,0)"/>
<path d="" fill="#236497" transform="translate(0,0)"/>
<path d="" fill="#236396" transform="translate(0,0)"/>
<path d="" fill="#246496" transform="translate(0,0)"/>
<path d="" fill="#246394" transform="translate(0,0)"/>
<path d="" fill="#256495" transform="translate(0,0)"/>
<path d="" fill="#1E6195" transform="translate(0,0)"/>
<path d="" fill="#226292" transform="translate(0,0)"/>
<path d="" fill="#236398" transform="translate(0,0)"/>
<path d="" fill="#1F6399" transform="translate(0,0)"/>
<path d="" fill="#23649A" transform="translate(0,0)"/>
<path d="" fill="#206599" transform="translate(0,0)"/>
<path d="" fill="#246597" transform="translate(0,0)"/>
<path d="" fill="#246298" transform="translate(0,0)"/>
<path d="" fill="#256296" transform="translate(0,0)"/>
<path d="" fill="#226394" transform="translate(0,0)"/>
<path d="" fill="#206197" transform="translate(0,0)"/>
<path d="" fill="#246696" transform="translate(0,0)"/>
<path d="" fill="#226495" transform="translate(0,0)"/>
<path d="" fill="#236292" transform="translate(0,0)"/>
<path d="" fill="#23679B" transform="translate(0,0)"/>
<path d="" fill="#216293" transform="translate(0,0)"/>
<path d="" fill="#20669A" transform="translate(0,0)"/>
<path d="" fill="#226299" transform="translate(0,0)"/>
<path d="" fill="#216495" transform="translate(0,0)"/>
<path d="" fill="#1F6597" transform="translate(0,0)"/>
<path d="" fill="#216397" transform="translate(0,0)"/>
<path d="" fill="#22689B" transform="translate(0,0)"/>
<path d="" fill="#206095" transform="translate(0,0)"/>
<path d="" fill="#206799" transform="translate(0,0)"/>
<path d="" fill="#1F6095" transform="translate(0,0)"/>
<path d="" fill="#1E6095" transform="translate(0,0)"/>
<path d="" fill="#216497" transform="translate(0,0)"/>
<path d="" fill="#1F6194" transform="translate(0,0)"/>
<path d="" fill="#216397" transform="translate(0,0)"/>
<path d="" fill="#1C6295" transform="translate(0,0)"/>
<path d="" fill="#226497" transform="translate(0,0)"/>
<path d="" fill="#206293" transform="translate(0,0)"/>
<path d="" fill="#236397" transform="translate(0,0)"/>
<path d="" fill="#226599" transform="translate(0,0)"/>
<path d="" fill="#246395" transform="translate(0,0)"/>
<path d="" fill="#206294" transform="translate(0,0)"/>
<path d="" fill="#216395" transform="translate(0,0)"/>
<path d="" fill="#216497" transform="translate(0,0)"/>
<path d="" fill="#20659A" transform="translate(0,0)"/>
<path d="" fill="#1F6496" transform="translate(0,0)"/>
<path d="" fill="#22689D" transform="translate(0,0)"/>
<path d="" fill="#216598" transform="translate(0,0)"/>
<path d="" fill="#20679B" transform="translate(0,0)"/>
<path d="" fill="#1F6197" transform="translate(0,0)"/>
<path d="" fill="#20659C" transform="translate(0,0)"/>
<path d="" fill="#21669D" transform="translate(0,0)"/>
<path d="" fill="#226499" transform="translate(0,0)"/>
<path d="" fill="#206499" transform="translate(0,0)"/>
<path d="" fill="#1F6395" transform="translate(0,0)"/>
<path d="" fill="#226398" transform="translate(0,0)"/>
<path d="" fill="#206498" transform="translate(0,0)"/>
<path d="" fill="#20679E" transform="translate(0,0)"/>
<path d="" fill="#20659C" transform="translate(0,0)"/>
<path d="" fill="#1F679B" transform="translate(0,0)"/>
<path d="" fill="#236396" transform="translate(0,0)"/>
<path d="" fill="#266594" transform="translate(0,0)"/>
<path d="" fill="#206095" transform="translate(0,0)"/>
<path d="" fill="#21669A" transform="translate(0,0)"/>
<path d="" fill="#1D6499" transform="translate(0,0)"/>
<path d="" fill="#216396" transform="translate(0,0)"/>
<path d="" fill="#216699" transform="translate(0,0)"/>
<path d="" fill="#216497" transform="translate(0,0)"/>
<path d="" fill="#1F6699" transform="translate(0,0)"/>
<path d="" fill="#1F6497" transform="translate(0,0)"/>
<path d="" fill="#246494" transform="translate(0,0)"/>
</svg>
